<svg width="20" height="20" viewBox="0 0 20 20" fill="none" xmlns="http://www.w3.org/2000/svg">
<path fill-rule="evenodd" clip-rule="evenodd" d="M9.67276 0C4.39428 0 0.115234 4.27905 0.115234 9.55752C0.115234 14.836 4.39428 19.115 9.67276 19.115C14.9512 19.115 19.2303 14.836 19.2303 9.55752C19.2303 4.27905 14.9512 0 9.67276 0ZM10.3111 10.1163V15.9291L7.97176 15.9292V10.1163H6.01562V7.85098H7.97182V6.1803C7.97182 4.24151 9.15592 3.18584 10.8855 3.18584C11.7139 3.18584 12.4259 3.2475 12.6335 3.27501V5.30112L11.4339 5.30168C10.4933 5.30168 10.3111 5.74868 10.3111 6.40455V7.85092H12.5544L12.2623 10.1163H10.3111Z" fill="#F8F8F8"/>
</svg>
