<svg width="20" height="20" viewBox="0 0 20 20" fill="none" xmlns="http://www.w3.org/2000/svg">
<path fill-rule="evenodd" clip-rule="evenodd" d="M0 9.55752C0 4.27905 4.27905 0 9.55752 0C14.836 0 19.115 4.27905 19.115 9.55752C19.115 14.836 14.836 19.115 9.55752 19.115C4.27905 19.115 0 14.836 0 9.55752ZM7.5666 9.55752C7.5666 8.45788 8.4578 7.56621 9.55744 7.56621C10.6571 7.56621 11.5487 8.45788 11.5487 9.55752C11.5487 10.6572 10.6571 11.5488 9.55744 11.5488C8.4578 11.5488 7.5666 10.6572 7.5666 9.55752ZM6.49014 9.55752C6.49014 11.2516 7.86336 12.6248 9.55744 12.6248C11.2515 12.6248 12.6247 11.2516 12.6247 9.55752C12.6247 7.86345 11.2515 6.49022 9.55744 6.49022C7.86336 6.49022 6.49014 7.86345 6.49014 9.55752ZM12.0293 6.3686C12.0293 6.51038 12.0713 6.64898 12.15 6.76689C12.2287 6.8848 12.3406 6.97673 12.4716 7.03103C12.6025 7.08534 12.7467 7.09959 12.8857 7.07199C13.0248 7.04438 13.1525 6.97617 13.2528 6.87596C13.3531 6.77575 13.4214 6.64805 13.4491 6.50902C13.4769 6.36998 13.4627 6.22585 13.4085 6.09484C13.3543 5.96384 13.2625 5.85185 13.1446 5.77304C13.0268 5.69423 12.8882 5.65213 12.7464 5.65208H12.7462C12.5561 5.65217 12.3739 5.72768 12.2395 5.86202C12.1051 5.99637 12.0295 6.17857 12.0293 6.3686ZM7.14416 14.4198C6.56177 14.3932 6.24523 14.2962 6.03487 14.2143C5.75598 14.1057 5.55699 13.9764 5.34778 13.7675C5.13856 13.5585 5.00906 13.3597 4.90096 13.0809C4.81896 12.8706 4.72195 12.5539 4.69548 11.9716C4.66652 11.3419 4.66073 11.1528 4.66073 9.55757C4.66073 7.96237 4.667 7.77375 4.69548 7.14358C4.722 6.56119 4.81972 6.24517 4.90096 6.03428C5.00954 5.75539 5.13885 5.55641 5.34778 5.34719C5.5567 5.13798 5.7555 5.00847 6.03487 4.90038C6.24513 4.81837 6.56177 4.72137 7.14416 4.69489C7.77381 4.66593 7.96295 4.66015 9.55744 4.66015C11.1519 4.66015 11.3413 4.66641 11.9714 4.69489C12.5538 4.72141 12.8698 4.81914 13.0807 4.90038C13.3596 5.00847 13.5586 5.13826 13.7678 5.34719C13.977 5.55612 14.1061 5.75539 14.2146 6.03428C14.2966 6.24455 14.3936 6.56119 14.4201 7.14358C14.4491 7.77375 14.4549 7.96237 14.4549 9.55757C14.4549 11.1528 14.4491 11.3414 14.4201 11.9716C14.3936 12.5539 14.2961 12.8705 14.2146 13.0809C14.1061 13.3597 13.9767 13.5587 13.7678 13.7675C13.5589 13.9762 13.3596 14.1057 13.0807 14.2143C12.8705 14.2963 12.5538 14.3933 11.9714 14.4198C11.3418 14.4487 11.1526 14.4545 9.55744 14.4545C7.96224 14.4545 7.77362 14.4487 7.14416 14.4198ZM7.0947 3.62024C6.45879 3.6492 6.02426 3.75003 5.64478 3.8977C5.25177 4.05019 4.91907 4.25477 4.58662 4.5867C4.25416 4.91863 4.0501 5.25186 3.89761 5.64486C3.74995 6.02458 3.64912 6.45888 3.62016 7.09479C3.59072 7.7317 3.58398 7.93532 3.58398 9.55752C3.58398 11.1797 3.59072 11.3833 3.62016 12.0203C3.64912 12.6562 3.74995 13.0905 3.89761 13.4702C4.0501 13.8629 4.25421 14.1965 4.58662 14.5283C4.91903 14.8601 5.25177 15.0644 5.64478 15.2173C6.02498 15.365 6.45879 15.4658 7.0947 15.4948C7.73195 15.5238 7.93524 15.531 9.55744 15.531C11.1796 15.531 11.3833 15.5242 12.0202 15.4948C12.6561 15.4658 13.0904 15.365 13.4701 15.2173C13.8629 15.0644 14.1958 14.8603 14.5283 14.5283C14.8607 14.1964 15.0643 13.8629 15.2173 13.4702C15.3649 13.0905 15.4662 12.6562 15.4947 12.0203C15.5237 11.3829 15.5304 11.1797 15.5304 9.55752C15.5304 7.93532 15.5237 7.7317 15.4947 7.09479C15.4658 6.45883 15.3649 6.02434 15.2173 5.64486C15.0643 5.25209 14.8602 4.91916 14.5283 4.5867C14.1963 4.25424 13.8629 4.05019 13.4706 3.8977C13.0904 3.75003 12.6561 3.64873 12.0206 3.62024C11.3837 3.59128 11.1801 3.58407 9.55791 3.58407C7.93572 3.58407 7.73195 3.59081 7.0947 3.62024Z" fill="#F8F8F8"/>
</svg>
